<svg width="54" height="54" viewBox="0 0 54 54" fill="none" xmlns="http://www.w3.org/2000/svg">
<g clip-path="url(#clip0)">
<path d="M50.9205 24.3791L28.7097 4.13989C28.2432 3.71142 27.6329 3.47366 26.9995 3.47366C26.3661 3.47366 25.7558 3.71142 25.2893 4.13989L3.07849 24.3791C2.7002 24.7238 2.43498 25.1749 2.31766 25.673C2.20034 26.1712 2.2364 26.6932 2.4211 27.1706C2.6058 27.6479 2.93052 28.0582 3.35262 28.3476C3.77471 28.6371 4.27447 28.7921 4.78628 28.7924H8.33137V49.046C8.33137 49.4277 8.483 49.7938 8.75289 50.0636C9.02278 50.3335 9.38883 50.4852 9.77052 50.4852H21.9649C22.3466 50.4852 22.7126 50.3335 22.9825 50.0636C23.2524 49.7938 23.404 49.4277 23.404 49.046V36.7557H30.5758V49.046C30.5758 49.4277 30.7274 49.7938 30.9973 50.0636C31.2672 50.3335 31.6332 50.4852 32.0149 50.4852H44.2093C44.591 50.4852 44.957 50.3335 45.2269 50.0636C45.4968 49.7938 45.6484 49.4277 45.6484 49.046V28.7924H49.1983C49.7101 28.7921 50.2099 28.6371 50.632 28.3476C51.0541 28.0582 51.3788 27.6479 51.5635 27.1706C51.7482 26.6932 51.7842 26.1712 51.6669 25.673C51.5496 25.1749 51.2844 24.7238 50.9061 24.3791H50.9205ZM45.2838 6.38016H35.5072L46.7374 16.5933V7.8337C46.7393 7.64228 46.703 7.45241 46.6306 7.27519C46.5583 7.09797 46.4513 6.93696 46.3159 6.80161C46.1806 6.66625 46.0196 6.55925 45.8423 6.48689C45.6651 6.41452 45.4752 6.37824 45.2838 6.38016V6.38016Z" fill="white"/>
</g>
<defs>
<clipPath id="clip0">
<rect width="49.5018" height="49.5018" fill="white" transform="translate(2.24844 2.24738)"/>
</clipPath>
</defs>
</svg>
