<svg width="29" height="29" viewBox="0 0 29 29" fill="none" xmlns="http://www.w3.org/2000/svg">
<path d="M14.5 3.70007C12.364 3.70007 10.2759 4.33347 8.49992 5.52018C6.72389 6.70689 5.33964 8.39359 4.52222 10.367C3.70481 12.3404 3.49093 14.5119 3.90765 16.6069C4.32436 18.7019 5.35295 20.6262 6.86334 22.1366C8.37373 23.647 10.2981 24.6756 12.3931 25.0923C14.488 25.509 16.6595 25.2951 18.6329 24.4777C20.6064 23.6603 22.2931 22.2761 23.4798 20.5C24.6665 18.724 25.2999 16.636 25.2999 14.4999C25.2966 11.6367 24.1577 8.89158 22.133 6.86693C20.1084 4.84227 17.3633 3.70337 14.5 3.70007V3.70007ZM14.5 23.6383C12.6926 23.6383 10.9258 23.1023 9.42301 22.0982C7.92021 21.0941 6.74893 19.6669 6.05727 17.997C5.36561 16.3272 5.18464 14.4898 5.53724 12.7171C5.88985 10.9445 6.76019 9.31618 8.03821 8.03815C9.31624 6.76013 10.9445 5.88979 12.7172 5.53718C14.4899 5.18458 16.3273 5.36555 17.9971 6.05721C19.6669 6.74887 21.0941 7.92015 22.0983 9.42295C23.1024 10.9257 23.6384 12.6925 23.6384 14.4999C23.6355 16.9227 22.6718 19.2454 20.9586 20.9586C19.2455 22.6717 16.9228 23.6354 14.5 23.6383ZM21.7451 15.0266L20.0835 16.6882C19.9278 16.8439 19.7165 16.9314 19.4962 16.9314C19.2759 16.9314 19.0646 16.8439 18.9088 16.6882L17.2473 15.0266C17.168 14.95 17.1047 14.8583 17.0612 14.757C17.0176 14.6556 16.9947 14.5466 16.9937 14.4363C16.9928 14.326 17.0138 14.2166 17.0556 14.1145C17.0973 14.0124 17.159 13.9197 17.237 13.8417C17.315 13.7637 17.4078 13.702 17.5099 13.6602C17.612 13.6184 17.7214 13.5974 17.8317 13.5984C17.942 13.5993 18.051 13.6222 18.1524 13.6658C18.2537 13.7093 18.3454 13.7726 18.422 13.852L18.6089 14.0389C18.5044 13.1514 18.1149 12.3217 17.4989 11.6743C16.8829 11.0269 16.0736 10.5967 15.1924 10.4483C14.3112 10.2998 13.4056 10.441 12.6115 10.8508C11.8173 11.2606 11.1775 11.9168 10.7879 12.721C10.3983 13.5253 10.28 14.4341 10.4506 15.3113C10.6213 16.1885 11.0718 16.9867 11.7346 17.5861C12.3973 18.1856 13.2365 18.554 14.1264 18.6361C15.0162 18.7182 15.9087 18.5096 16.67 18.0415C16.8566 17.9411 17.0745 17.9159 17.2791 17.971C17.4837 18.026 17.6596 18.1571 17.7707 18.3375C17.8818 18.518 17.9198 18.734 17.8769 18.9415C17.8339 19.149 17.7133 19.3322 17.5398 19.4538C16.4571 20.1192 15.1862 20.4116 13.9216 20.2863C12.6569 20.1611 11.4681 19.625 10.537 18.7601C9.60593 17.8952 8.98378 16.7491 8.76574 15.4971C8.54769 14.2451 8.74577 12.9562 9.32967 11.8274C9.91356 10.6987 10.8511 9.79229 11.999 9.24686C13.1468 8.70144 14.4417 8.54703 15.6856 8.80725C16.9295 9.06747 18.0539 9.72799 18.8868 10.6878C19.7198 11.6476 20.2154 12.8538 20.2979 14.122L20.572 13.8486C20.6487 13.7693 20.7403 13.706 20.8417 13.6625C20.943 13.6189 21.0521 13.596 21.1624 13.595C21.2727 13.5941 21.3821 13.6151 21.4842 13.6569C21.5863 13.6986 21.679 13.7603 21.757 13.8383C21.835 13.9163 21.8967 14.0091 21.9385 14.1112C21.9803 14.2133 22.0013 14.3227 22.0003 14.433C21.9994 14.5433 21.9764 14.6523 21.9329 14.7537C21.8894 14.855 21.8261 14.9467 21.7467 15.0233L21.7451 15.0266Z" fill="#929292"/>
</svg>
